<svg  fill="rgba(0,0,0,0.2)" height="96px" width="56px" viewBox="0 0 56 96" preserveAspectRatio="none" xmlns="http://www.w3.org/2000/svg"><path d="M11.27,27.67C17.9,33.35,23.62,38.26,23.62,48S17.9,62.66,11.27,68.34c-4,3.39-8.2,7-11.27,11.9H0V96H4.38c0-9.74,5.72-14.64,12.35-20.33,4-3.39,8.2-7,11.27-11.9,3.07,4.87,7.31,8.51,11.27,11.9C45.9,81.35,51.62,86.26,51.62,96H56V80.24c-3.07-4.87-7.31-8.51-11.27-11.91C38.1,62.65,32.38,57.74,32.38,48S38.1,33.35,44.73,27.67c4-3.39,8.2-7,11.27-11.91h0V0H51.62c0,9.74-5.72,14.65-12.35,20.33-4,3.4-8.2,7-11.27,11.91-3.07-4.87-7.31-8.51-11.27-11.9C10.1,14.65,4.38,9.74,4.38,0H0V15.76C3.07,20.64,7.31,24.28,11.27,27.67Z"/></svg>